<svg viewBox="-4 -4 108 108" xmlns="http://www.w3.org/2000/svg" role="img" aria-label="QUEUING logo">
  <circle cx="44" cy="40" r="27" fill="none" stroke="#E31B23" stroke-width="15"/>
  <g transform="translate(66,62) rotate(-45)">
    <path d="M0,-24 C7,-24 11,-15 11,-4 L11,14 C11,14 6,19 0,19 C-6,19 -11,14 -11,14 L-11,-4 C-11,-15 -7,-24 0,-24 Z" fill="#1E3A5F"/>
    <circle cx="0" cy="-6" r="4.5" fill="#BFE0FF"/>
    <path d="M-11,6 L-19,18 L-11,15 Z" fill="#16283F"/>
    <path d="M11,6 L19,18 L11,15 Z" fill="#16283F"/>
    <path d="M-5,17 C-5,24 0,29 0,29 C0,29 5,24 5,17 Z" fill="#4F8FE3"/>
  </g>
  <path d="M84,80 L95,95 M95,95 L95,84 M95,95 L84,95" fill="none" stroke="#4F8FE3" stroke-width="8" stroke-linecap="round" stroke-linejoin="round"/>
</svg>
